# xmcd
#
# Track frame offsets:
#	150
#	15952
#	35813
#	54698
#	69821
#	78313
#	103659
#	125248
#	142653
#	162791
#	198366
#	234301
#	250269
#	282568
#	300368
#
# Disc length: 4371 seconds
#
# Revision: 0
# Processed by: cddbd v1.5.2PL0 Copyright (c) Steve Scherf et al.
# Submitted via: audiograbber 1.83.01
#
DISCID=c211110f
DTITLE=Irmão Lázaro  - Um Sentimento Novo
DYEAR=2011
DGENRE=Gospel
TTITLE0=Naturalmente
TTITLE1=Colorir de Amor
TTITLE2=Vai Mudar
TTITLE3=Contempla
TTITLE4=Você Vai vencer
TTITLE5=Conte a Deus
TTITLE6=Povo de Deus
TTITLE7=Ai de Mim
TTITLE8=Sai de Cena
TTITLE9=Mesmo Assim te Louvarei
TTITLE10=Um Sentimento Novo
TTITLE11=Testemunho 1
TTITLE12=Testemunho 2
TTITLE13=Testemunho 3
TTITLE14=Amor de Verdade
EXTD=
EXTT0=
EXTT1=
EXTT2=
EXTT3=
EXTT4=
EXTT5=
EXTT6=
EXTT7=
EXTT8=
EXTT9=
EXTT10=
EXTT11=
EXTT12=
EXTT13=
EXTT14=
PLAYORDER=
